<?xml version="1.0" encoding="UTF-8" standalone="no"?>
<!DOCTYPE svg PUBLIC "-//W3C//DTD SVG 1.0//EN" "http://www.w3.org/TR/2001/PR-SVG-20010719/DTD/svg10.dtd">
<svg width="45cm" height="21cm" viewBox="299 19 896 420" xmlns="http://www.w3.org/2000/svg" xmlns:xlink="http://www.w3.org/1999/xlink">
  <g>
    <rect style="fill: #ffffff" x="680" y="20" width="81.526" height="38"/>
    <rect style="fill: none; fill-opacity:0; stroke-width: 2; stroke: #000000" x="680" y="20" width="81.526" height="38"/>
    <text font-size="12.8" style="fill: #000000;text-anchor:middle;font-family:sans-serif;font-style:normal;font-weight:normal" x="720.763" y="43.8">
      <tspan x="720.763" y="43.8">pds</tspan>
    </text>
  </g>
  <g>
    <rect style="fill: #ffffff" x="520" y="360" width="122" height="38"/>
    <rect style="fill: none; fill-opacity:0; stroke-width: 2; stroke: #000000" x="520" y="360" width="122" height="38"/>
    <text font-size="12.8" style="fill: #000000;text-anchor:middle;font-family:sans-serif;font-style:normal;font-weight:normal" x="581" y="383.8">
      <tspan x="581" y="383.8">FrameStore</tspan>
    </text>
  </g>
  <g>
    <rect style="fill: #ffffff" x="560" y="160" width="100" height="38"/>
    <rect style="fill: none; fill-opacity:0; stroke-width: 2; stroke: #000000" x="560" y="160" width="100" height="38"/>
    <text font-size="12.8" style="fill: #000000;text-anchor:middle;font-family:sans-serif;font-style:normal;font-weight:normal" x="610" y="183.8">
      <tspan x="610" y="183.8">TableStore</tspan>
    </text>
  </g>
  <g>
    <rect style="fill: #ffffff" x="680" y="160" width="100" height="38"/>
    <rect style="fill: none; fill-opacity:0; stroke-width: 2; stroke: #000000" x="680" y="160" width="100" height="38"/>
    <text font-size="12.8" style="fill: #000000;text-anchor:middle;font-family:sans-serif;font-style:normal;font-weight:normal" x="730" y="183.8">
      <tspan x="730" y="183.8">DiffStore</tspan>
    </text>
  </g>
  <g>
    <rect style="fill: #ffffff" x="700" y="340" width="120" height="38"/>
    <rect style="fill: none; fill-opacity:0; stroke-width: 2; stroke: #000000" x="700" y="340" width="120" height="38"/>
    <text font-size="12.8" style="fill: #000000;text-anchor:middle;font-family:sans-serif;font-style:normal;font-weight:normal" x="760" y="363.8">
      <tspan x="760" y="363.8">ImmediateStatus</tspan>
    </text>
  </g>
  <g>
    <rect style="fill: #ffffff" x="840" y="340" width="118.222" height="38"/>
    <rect style="fill: none; fill-opacity:0; stroke-width: 2; stroke: #000000" x="840" y="340" width="118.222" height="38"/>
    <text font-size="12.8" style="fill: #000000;text-anchor:middle;font-family:sans-serif;font-style:normal;font-weight:normal" x="899.111" y="363.8">
      <tspan x="899.111" y="363.8">AggregateStatus</tspan>
    </text>
  </g>
  <g>
    <rect style="fill: #ffffff" x="460" y="280" width="113" height="38"/>
    <rect style="fill: none; fill-opacity:0; stroke-width: 2; stroke: #000000" x="460" y="280" width="113" height="38"/>
    <text font-size="12.8" style="fill: #000000;text-anchor:middle;font-family:sans-serif;font-style:normal;font-weight:normal" x="516.5" y="303.8">
      <tspan x="516.5" y="303.8">videoSvc</tspan>
    </text>
  </g>
  <g>
    <rect style="fill: #ffffff" x="380" y="360" width="117.5" height="38"/>
    <rect style="fill: none; fill-opacity:0; stroke-width: 2; stroke: #000000" x="380" y="360" width="117.5" height="38"/>
    <text font-size="12.8" style="fill: #000000;text-anchor:middle;font-family:sans-serif;font-style:normal;font-weight:normal" x="438.75" y="383.8">
      <tspan x="438.75" y="383.8">VLCHooks</tspan>
    </text>
  </g>
  <g>
    <rect style="fill: #ffffff" x="620" y="101" width="100" height="38"/>
    <rect style="fill: none; fill-opacity:0; stroke-width: 2; stroke: #000000" x="620" y="101" width="100" height="38"/>
    <text font-size="12.8" style="fill: #000000;text-anchor:middle;font-family:sans-serif;font-style:normal;font-weight:normal" x="670" y="124.8">
      <tspan x="670" y="124.8">cvStores</tspan>
    </text>
  </g>
  <g>
    <rect style="fill: #ffffff" x="780" y="280" width="98.424" height="38"/>
    <rect style="fill: none; fill-opacity:0; stroke-width: 2; stroke: #000000" x="780" y="280" width="98.424" height="38"/>
    <text font-size="12.8" style="fill: #000000;text-anchor:middle;font-family:sans-serif;font-style:normal;font-weight:normal" x="829.212" y="303.8">
      <tspan x="829.212" y="303.8">sitAnalyze</tspan>
    </text>
  </g>
  <g>
    <rect style="fill: #ffffff" x="1100" y="100" width="80" height="38"/>
    <rect style="fill: none; fill-opacity:0; stroke-width: 2; stroke: #000000" x="1100" y="100" width="80" height="38"/>
    <text font-size="12.8" style="fill: #000000;text-anchor:middle;font-family:sans-serif;font-style:normal;font-weight:normal" x="1140" y="123.8">
      <tspan x="1140" y="123.8">output</tspan>
    </text>
  </g>
  <g>
    <rect style="fill: #ffffff" x="1088" y="159" width="105.2" height="38"/>
    <rect style="fill: none; fill-opacity:0; stroke-width: 2; stroke: #000000" x="1088" y="159" width="105.2" height="38"/>
    <text font-size="12.8" style="fill: #000000;text-anchor:middle;font-family:sans-serif;font-style:normal;font-weight:normal" x="1140.6" y="182.8">
      <tspan x="1140.6" y="182.8">OutputConsole</tspan>
    </text>
  </g>
  <g>
    <rect style="fill: #ffffff" x="400" y="100" width="78.5" height="38"/>
    <rect style="fill: none; fill-opacity:0; stroke-width: 2; stroke: #000000" x="400" y="100" width="78.5" height="38"/>
    <text font-size="12.8" style="fill: #000000;text-anchor:middle;font-family:sans-serif;font-style:normal;font-weight:normal" x="439.25" y="123.8">
      <tspan x="439.25" y="123.8">input</tspan>
    </text>
  </g>
  <line style="fill: none; fill-opacity:0; stroke-width: 2; stroke: #000000" x1="1140" y1="138" x2="1140.6" y2="159"/>
  <g>
    <rect style="fill: #ffffff" x="392.125" y="160" width="96.65" height="38"/>
    <rect style="fill: none; fill-opacity:0; stroke-width: 2; stroke: #000000" x="392.125" y="160" width="96.65" height="38"/>
    <text font-size="12.8" style="fill: #000000;text-anchor:middle;font-family:sans-serif;font-style:normal;font-weight:normal" x="440.45" y="183.8">
      <tspan x="440.45" y="183.8">InputConsole</tspan>
    </text>
  </g>
  <line style="fill: none; fill-opacity:0; stroke-width: 2; stroke: #000000" x1="439.25" y1="138" x2="440.45" y2="160"/>
  <polyline style="fill: none; fill-opacity:0; stroke-width: 2; stroke: #000000" points="720.764,58 720.764,80 516.5,80 516.5,280 "/>
  <polyline style="fill: none; fill-opacity:0; stroke-width: 2; stroke: #000000" points="720.764,58 720.764,80 439.25,80 439.25,100 "/>
  <polyline style="fill: none; fill-opacity:0; stroke-width: 2; stroke: #000000" points="720.764,58 720.764,80 829.212,80 829.212,280 "/>
  <polyline style="fill: none; fill-opacity:0; stroke-width: 2; stroke: #000000" points="1140,100 1140,80 720.764,80 720.764,58 "/>
  <polyline style="fill: none; fill-opacity:0; stroke-width: 2; stroke: #000000" points="720.764,58 720.764,80 970,80 970,100 "/>
  <g>
    <rect style="fill: #ffffff" x="920" y="100" width="100" height="38"/>
    <rect style="fill: none; fill-opacity:0; stroke-width: 2; stroke: #000000" x="920" y="100" width="100" height="38"/>
    <text font-size="12.8" style="fill: #000000;text-anchor:middle;font-family:sans-serif;font-style:normal;font-weight:normal" x="970" y="123.8">
      <tspan x="970" y="123.8">cvSvc</tspan>
    </text>
  </g>
  <g>
    <rect style="fill: #ffffff" x="880" y="160" width="84" height="38"/>
    <rect style="fill: none; fill-opacity:0; stroke-width: 2; stroke: #000000" x="880" y="160" width="84" height="38"/>
    <text font-size="12.8" style="fill: #000000;text-anchor:middle;font-family:sans-serif;font-style:normal;font-weight:normal" x="922" y="183.8">
      <tspan x="922" y="183.8">DetectBall</tspan>
    </text>
  </g>
  <g>
    <rect style="fill: #ffffff" x="980" y="160" width="80" height="38"/>
    <rect style="fill: none; fill-opacity:0; stroke-width: 2; stroke: #000000" x="980" y="160" width="80" height="38"/>
    <text font-size="12.8" style="fill: #000000;text-anchor:middle;font-family:sans-serif;font-style:normal;font-weight:normal" x="1020" y="183.8">
      <tspan x="1020" y="183.8">DiffMotion</tspan>
    </text>
  </g>
  <g>
    <rect style="fill: #ffffff" x="880" y="220" width="84" height="38"/>
    <rect style="fill: none; fill-opacity:0; stroke-width: 2; stroke: #000000" x="880" y="220" width="84" height="38"/>
    <text font-size="12.8" style="fill: #000000;text-anchor:middle;font-family:sans-serif;font-style:normal;font-weight:normal" x="922" y="243.8">
      <tspan x="922" y="243.8">MatDisplay</tspan>
    </text>
  </g>
  <g>
    <rect style="fill: #ffffff" x="980" y="280" width="130.7" height="38"/>
    <rect style="fill: none; fill-opacity:0; stroke-width: 2; stroke: #000000" x="980" y="280" width="130.7" height="38"/>
    <text font-size="12.8" style="fill: #000000;text-anchor:middle;font-family:sans-serif;font-style:normal;font-weight:normal" x="1045.35" y="303.8">
      <tspan x="1045.35" y="303.8">ConvertFrameNode</tspan>
    </text>
  </g>
  <polyline style="fill: none; fill-opacity:0; stroke-width: 2; stroke: #000000" points="670,101 670,80 720.764,80 720.764,58 "/>
  <g>
    <rect style="fill: #ffffff" x="300" y="100" width="78.5" height="38"/>
    <rect style="fill: none; fill-opacity:0; stroke-width: 2; stroke: #000000" x="300" y="100" width="78.5" height="38"/>
    <text font-size="12.8" style="fill: #000000;text-anchor:middle;font-family:sans-serif;font-style:normal;font-weight:normal" x="339.25" y="123.8">
      <tspan x="339.25" y="123.8">PDSMain</tspan>
    </text>
  </g>
  <polyline style="fill: none; fill-opacity:0; stroke-width: 2; stroke: #000000" points="720.764,58 720.764,80 339.25,80 339.25,100 "/>
  <g>
    <rect style="fill: #ffffff" x="560" y="220" width="100" height="38"/>
    <rect style="fill: none; fill-opacity:0; stroke-width: 2; stroke: #000000" x="560" y="220" width="100" height="38"/>
    <text font-size="12.8" style="fill: #000000;text-anchor:middle;font-family:sans-serif;font-style:normal;font-weight:normal" x="610" y="243.8">
      <tspan x="610" y="243.8">BallStore</tspan>
    </text>
  </g>
  <g>
    <rect style="fill: #ffffff" x="680" y="219" width="100" height="40.5"/>
    <rect style="fill: none; fill-opacity:0; stroke-width: 2; stroke: #000000" x="680" y="219" width="100" height="40.5"/>
    <text font-size="12.8" style="fill: #000000;text-anchor:middle;font-family:sans-serif;font-style:normal;font-weight:normal" x="730" y="244.05">
      <tspan x="730" y="244.05">RacketStore</tspan>
    </text>
  </g>
  <polyline style="fill: none; fill-opacity:0; stroke-width: 2; stroke: #000000" points="516.5,318 516.5,339 438.75,339 438.75,360 "/>
  <polyline style="fill: none; fill-opacity:0; stroke-width: 2; stroke: #000000" points="581,360 581,339 516.5,339 516.5,318 "/>
  <polyline style="fill: none; fill-opacity:0; stroke-width: 2; stroke: #000000" points="660,179 668.257,179 668.257,141.526 670,141.526 670,139 "/>
  <line style="fill: none; fill-opacity:0; stroke-width: 2; stroke: #000000" x1="680" y1="179" x2="666.828" y2="178.539"/>
  <polyline style="fill: none; fill-opacity:0; stroke-width: 2; stroke: #000000" points="660,239 668.257,239 668.257,139 670,139 "/>
  <polyline style="fill: none; fill-opacity:0; stroke-width: 2; stroke: #000000" points="680,239.25 668.257,239.25 668.257,140.112 670,140.112 670,139 "/>
  <g>
    <rect style="fill: #ffffff" x="700" y="400" width="120" height="38"/>
    <rect style="fill: none; fill-opacity:0; stroke-width: 2; stroke: #000000" x="700" y="400" width="120" height="38"/>
    <text font-size="12.8" style="fill: #000000;text-anchor:middle;font-family:sans-serif;font-style:normal;font-weight:normal" x="760" y="423.8">
      <tspan x="760" y="423.8">ImmediateStore</tspan>
    </text>
  </g>
  <g>
    <rect style="fill: #ffffff" x="840" y="400" width="118.222" height="38"/>
    <rect style="fill: none; fill-opacity:0; stroke-width: 2; stroke: #000000" x="840" y="400" width="118.222" height="38"/>
    <text font-size="12.8" style="fill: #000000;text-anchor:middle;font-family:sans-serif;font-style:normal;font-weight:normal" x="899.111" y="423.8">
      <tspan x="899.111" y="423.8">AggregateStore</tspan>
    </text>
  </g>
  <polyline style="fill: none; fill-opacity:0; stroke-width: 2; stroke: #000000" points="820,359 829.591,359 829.591,340 829.212,340 829.212,318 "/>
  <polyline style="fill: none; fill-opacity:0; stroke-width: 2; stroke: #000000" points="840,359 829.211,359 829.211,340 829.212,340 829.212,318 "/>
  <polyline style="fill: none; fill-opacity:0; stroke-width: 2; stroke: #000000" points="820,419 829.211,419 829.211,338.667 829.212,338.667 829.212,318 "/>
  <polyline style="fill: none; fill-opacity:0; stroke-width: 2; stroke: #000000" points="840,419 829.544,419 829.544,320 829.212,320 829.212,318 "/>
  <g>
    <rect style="fill: #ffffff" x="980" y="220" width="89.7" height="38"/>
    <rect style="fill: none; fill-opacity:0; stroke-width: 2; stroke: #000000" x="980" y="220" width="89.7" height="38"/>
    <text font-size="12.8" style="fill: #000000;text-anchor:middle;font-family:sans-serif;font-style:normal;font-weight:normal" x="1024.85" y="243.8">
      <tspan x="1024.85" y="243.8">DetectTable</tspan>
    </text>
  </g>
  <polyline style="fill: none; fill-opacity:0; stroke-width: 2; stroke: #000000" points="970,138 970,161 970.602,161 970.602,179 964,179 "/>
  <polyline style="fill: none; fill-opacity:0; stroke-width: 2; stroke: #000000" points="980,179 970,179 970,180 970,180 970,138 "/>
  <polyline style="fill: none; fill-opacity:0; stroke-width: 2; stroke: #000000" points="964,239 970.13,239 970.13,194.588 970,194.588 970,138 "/>
  <polyline style="fill: none; fill-opacity:0; stroke-width: 2; stroke: #000000" points="980,239 970.13,239 970.13,189 970,189 970,138 "/>
  <polyline style="fill: none; fill-opacity:0; stroke-width: 2; stroke: #000000" points="980,299 970,299 970,219 970,219 970,138 "/>
</svg>
